<svg width="160" height="72" viewBox="0 0 160 72" fill="none" xmlns="http://www.w3.org/2000/svg">
<path d="M30 40.0731C30 32.4509 35.0823 27.1439 42.3214 27.1439C47.2103 27.1439 51.19 29.605 52.7708 33.4151C52.9641 33.8 53.0109 34.1379 53.0109 34.5246C53.0109 35.3929 52.3397 35.9724 51.477 35.9724C50.8057 35.9724 50.2316 35.5853 49.9429 34.8133C48.6975 31.726 45.8697 29.9406 42.3214 29.9406C36.9032 29.9406 33.1169 34.0906 33.1169 40.0731C33.1169 46.006 36.8565 50.154 42.3214 50.154C45.8697 50.154 48.5531 48.4182 49.9915 44.8005C50.2786 44.0756 50.7586 43.6415 51.477 43.6415C52.3397 43.6415 53.0109 44.3172 53.0109 45.1852C53.0109 45.5234 52.9641 45.7647 52.8197 46.1988C51.2856 50.3468 47.3548 53 42.3214 53C35.0335 53 30 47.6933 30 40.0731Z" fill="#100F0D"/>
<path d="M71.1197 50.8791C71.1197 51.9394 70.5438 52.6152 69.5386 52.6152C68.5316 52.6152 68.0046 51.9394 68.0046 50.8791L68.0037 20.9585C68.0037 19.8486 68.5796 19.2202 69.5866 19.2202C70.5935 19.2202 71.1206 19.8486 71.1206 20.9585V27.7706H76.485C77.4431 27.7706 78.019 28.3009 78.019 29.1689C78.019 30.0393 77.4431 30.5693 76.485 30.5693H71.1206L71.1197 50.8791Z" fill="#100F0D"/>
<path d="M95.1318 29.4597C95.1318 30.3279 94.507 30.9542 93.5978 30.9542C93.262 30.9542 92.9263 30.8579 92.446 30.6166C91.7277 30.2788 90.9608 30.0863 89.9539 30.0863C86.6457 30.0863 84.489 32.9812 84.489 36.648V50.8791C84.489 51.9869 83.962 52.6152 82.955 52.6152C81.9477 52.6152 81.3721 51.9869 81.3721 50.8791V29.2673C81.3721 28.1577 81.9477 27.5293 82.955 27.5293C83.962 27.5293 84.489 28.1577 84.489 29.2673V29.8939C85.8317 28.1085 87.9399 27.1441 90.2896 27.1441C92.1105 27.1441 93.4044 27.5293 94.3161 28.1085C94.8431 28.4464 95.1318 28.8802 95.1318 29.4597Z" fill="#100F0D"/>
<path d="M98.2937 29.2673C98.2937 28.1577 98.8672 27.5293 99.8745 27.5293C100.881 27.5293 101.409 28.1577 101.409 29.2673V50.8791C101.409 51.9394 100.833 52.6152 99.8277 52.6152C98.8204 52.6152 98.2937 51.9394 98.2937 50.8791V29.2673Z" fill="#100F0D"/>
<path d="M58.4849 29.2668C58.4849 28.1572 59.0586 27.5288 60.0659 27.5288C61.073 27.5288 61.6 28.1572 61.6 29.2668V50.8786C61.6 51.9389 61.0241 52.6147 60.0189 52.6147C59.012 52.6147 58.4849 51.9389 58.4849 50.8786V29.2668Z" fill="#100F0D"/>
<path d="M62.4909 21.6837C62.4909 23.0445 61.3949 24.1475 60.0425 24.1475C58.6904 24.1475 57.5941 23.0445 57.5941 21.6837C57.5941 20.3231 58.6904 19.2199 60.0425 19.2199C61.3949 19.2199 62.4909 20.3231 62.4909 21.6837Z" fill="#100F0D"/>
<path d="M117.609 42.0017L109.124 51.9869C108.789 52.4228 108.357 52.6152 107.877 52.6152C107.015 52.6152 106.392 51.9394 106.392 51.1678C106.392 50.83 106.487 50.4432 106.823 50.0582L115.692 39.976L107.159 30.1354C106.823 29.7484 106.632 29.4105 106.632 28.9768C106.632 28.2048 107.255 27.5293 108.166 27.5293C108.644 27.5293 108.98 27.7235 109.364 28.1577L117.609 37.9011L125.854 28.1577C126.239 27.7235 126.575 27.5293 127.053 27.5293C127.964 27.5293 128.587 28.2048 128.587 28.9768C128.587 29.4105 128.396 29.7484 128.06 30.1354L119.527 39.976L128.396 50.0582C128.732 50.4432 128.827 50.83 128.827 51.1678C128.827 51.9394 128.205 52.6152 127.342 52.6152C126.861 52.6152 126.43 52.4228 126.095 51.9869L117.609 42.0017Z" fill="#100F0D"/>
<path d="M120.058 21.6842C120.058 23.045 118.962 24.1479 117.61 24.1479C116.257 24.1479 115.161 23.045 115.161 21.6842C115.161 20.3236 116.257 19.2204 117.61 19.2204C118.962 19.2204 120.058 20.3236 120.058 21.6842Z" fill="#100F0D"/>
</svg>
