<svg width="48" height="48" viewBox="0 0 48 48" fill="none" xmlns="http://www.w3.org/2000/svg">
<path d="M35.3136 12.6862C34.9231 12.2957 34.2899 12.2957 33.8994 12.6862L23.9999 22.5857L14.1004 12.6862C13.7099 12.2957 13.0767 12.2957 12.6862 12.6862C12.2957 13.0767 12.2957 13.7099 12.6862 14.1004L22.5857 23.9999L12.6862 33.8994C12.2957 34.2899 12.2957 34.9231 12.6862 35.3136C13.0767 35.7041 13.7099 35.7041 14.1004 35.3136L23.9999 25.4141L33.8994 35.3136C34.2899 35.7041 34.9231 35.7041 35.3136 35.3136C35.7041 34.9231 35.7041 34.2899 35.3136 33.8994L25.4141 23.9999L35.3136 14.1004C35.7041 13.7099 35.7041 13.0767 35.3136 12.6862Z" fill="#BCC6CF"/>
</svg>
