<svg width="22" height="41" viewBox="0 0 22 41" fill="none" xmlns="http://www.w3.org/2000/svg">
<path d="M3.06066 28.9393C2.47487 28.3536 1.52513 28.3536 0.93934 28.9393C0.353553 29.5251 0.353553 30.4749 0.93934 31.0607L3.06066 28.9393ZM21.0607 31.0607C21.6464 30.4749 21.6464 29.5251 21.0607 28.9393C20.4749 28.3536 19.5251 28.3536 18.9393 28.9393L21.0607 31.0607ZM11.3536 37.2322L3.06066 28.9393L0.93934 31.0607L9.23223 39.3536L11.3536 37.2322ZM12.7678 39.3536L21.0607 31.0607L18.9393 28.9393L10.6464 37.2322L12.7678 39.3536ZM9.23223 39.3536C10.2085 40.3299 11.7915 40.3299 12.7678 39.3536L10.6464 37.2322C10.8417 37.037 11.1583 37.037 11.3536 37.2322L9.23223 39.3536Z" fill="#0080FF"/>
<path d="M11 37L11 0" stroke="url(#paint0_linear)" stroke-width="2"/>
<defs>
<linearGradient id="paint0_linear" x1="11.5" y1="1.40017e-08" x2="11.5" y2="37" gradientUnits="userSpaceOnUse">
<stop stop-color="#0080FF" stop-opacity="0"/>
<stop offset="0.938815" stop-color="#0080FF"/>
</linearGradient>
</defs>
</svg>
