<svg width="88" height="20" viewBox="0 0 88 20" fill="none" xmlns="http://www.w3.org/2000/svg">
<path fill-rule="evenodd" clip-rule="evenodd" d="M21.5897 0L0 12.4646V17.4507L4.31782 19.9436L25.9075 7.47886V2.49281L21.5897 0Z" fill="#0096FF"/>
<path fill-rule="evenodd" clip-rule="evenodd" d="M4.31797 0L0 2.49281V7.47886L3.77817 9.66003L12.4141 4.67427L4.31797 0Z" fill="#25C764"/>
<path fill-rule="evenodd" clip-rule="evenodd" d="M13.4935 15.2694L21.5897 19.9436L25.9075 17.4505V12.4648L22.1293 10.2835L13.4935 15.2694Z" fill="#25C764"/>
<path fill-rule="evenodd" clip-rule="evenodd" d="M36.0071 6.433C35.1972 6.416 34.7752 6.16298 34.7752 5.70753C34.7752 5.30251 35.1802 5.01593 35.9731 5.01593C36.7326 5.01593 37.3227 5.18435 37.9471 5.6231L39.145 4.10458C38.2678 3.3454 37.2387 3.02481 35.9564 3.02481C34.1511 3.02481 32.3626 3.818 32.3626 5.70753C32.3626 7.66464 34.303 8.30567 35.8549 8.3734C36.9854 8.40712 37.2725 8.72741 37.2725 9.11543C37.2892 9.55417 36.7326 9.8409 36.0238 9.82419C35.1465 9.80718 34.1511 9.6216 33.1218 8.77813L32.0757 10.4989C33.4931 11.6802 34.7585 11.9163 35.9901 11.9163C38.6388 11.9163 39.6512 10.4652 39.6341 9.11543C39.6176 6.82102 37.6435 6.48372 36.0071 6.433ZM50.4331 3.05849C49.2015 3.05849 48.4087 3.49723 47.6663 4.62773C47.1264 3.4128 46.1476 3.0755 45.2367 3.0755C44.5834 3.0755 43.7197 3.26899 43.1783 4.01176V3.26108H42.8746H40.7487V9.12972V11.5957H43.1783V9.12972V7.14143C43.1783 6.19682 43.7182 5.30248 44.6798 5.30248C45.6756 5.30248 46.114 6.02795 46.114 7.12473V11.5957H48.5097V7.12473C48.5097 6.17966 49.0833 5.3532 50.0451 5.3532C51.0237 5.3532 51.3103 6.04495 51.3103 7.09101V11.5957H53.7569V7.04029C53.7569 3.93613 52.1709 3.05849 50.4331 3.05849ZM67.5607 4.17898V3.27807H67.3923H65.1311V11.5957H67.5607V7.25957C67.5607 6.01122 68.4549 5.33618 69.5011 5.33618C70.0072 5.33618 70.429 5.47133 70.8337 5.75791L71.8462 3.83467C71.2559 3.31179 70.5979 3.07548 69.8047 3.07548C68.8768 3.07548 68.1173 3.40279 67.5607 4.17898ZM77.0266 9.58795C76.5711 9.58795 76.0819 9.35164 76.0819 8.47446V5.33613H78.2078V3.31174H76.0989V0.983322L73.6694 2.38503V3.31174H72.1846V5.33613H73.6694V8.47446C73.6694 11.0729 75.0359 11.8656 76.841 11.7812C77.499 11.7475 77.9886 11.6465 78.5958 11.4102L78.0389 9.38536C77.769 9.52052 77.3136 9.58795 77.0266 9.58795ZM59.1746 9.62165C57.9597 9.62165 56.9813 8.81174 56.9813 7.42838C56.9813 6.04488 57.9597 5.21811 59.1746 5.21811C60.6254 5.21811 61.3846 6.3149 61.3846 7.51282C61.3846 8.55888 60.541 9.62165 59.1746 9.62165ZM61.3846 3.26101V4.22278C60.9461 3.4803 59.9674 3.07557 58.9213 3.07557C56.4582 3.04186 54.5518 4.66152 54.5518 7.42838C54.5518 10.1785 56.357 11.7982 58.8539 11.7812C59.6493 11.7648 60.8158 11.4357 61.3846 10.593V11.5958H61.5534H63.7467V3.26101H61.469H61.3846Z" fill="#212934"/>
<path fill-rule="evenodd" clip-rule="evenodd" d="M87.8421 11.5958L84.86 7.33432L87.6902 3.27805H84.7887L83.4051 5.25522L82.0214 3.27805H79.1199L81.9542 7.32832L78.968 11.5958H81.8867L83.4114 9.41064L84.9404 11.5958H87.8421Z" fill="#212934"/>
<path fill-rule="evenodd" clip-rule="evenodd" d="M35.65 14.446L34.7937 15.524H34.6827L33.8545 14.4383V16.3761H33.2361V13.6019H33.9455L34.7541 14.6681L35.5666 13.6019H36.2681V16.3761H35.65V14.446Z" fill="#212934"/>
<path fill-rule="evenodd" clip-rule="evenodd" d="M39.8108 14.2242L39.3315 15.3495H40.2866L39.8108 14.2242ZM40.5204 15.8965H39.0975L38.8953 16.3723H38.2297L39.4741 13.5978H40.1478L41.3923 16.3723H40.7225L40.5204 15.8965Z" fill="#212934"/>
<path fill-rule="evenodd" clip-rule="evenodd" d="M45.6443 13.6135L44.5186 14.9456L45.7435 16.3365V16.3723H44.9982L43.9716 15.1874V16.3723H43.3533V13.5977H43.9716V14.7435L44.8952 13.5977H45.6443V13.6135Z" fill="#212934"/>
<path fill-rule="evenodd" clip-rule="evenodd" d="M49.8009 16.3723H47.6883V13.5978H49.7456V14.1647H48.2947V14.6997H49.6622V15.2427H48.2947V15.8016H49.8009V16.3723Z" fill="#212934"/>
<path fill-rule="evenodd" clip-rule="evenodd" d="M54.5616 13.5978H55.1759V16.3723H54.5616V13.5978Z" fill="#212934"/>
<path fill-rule="evenodd" clip-rule="evenodd" d="M58.0634 14.1489H57.219V13.5978H59.5219V14.1489H58.6776V16.3723H58.0634V14.1489Z" fill="#212934"/>
<path fill-rule="evenodd" clip-rule="evenodd" d="M65.7054 14.2677C65.5508 14.105 65.2811 14.034 65.0632 14.034C64.7899 14.034 64.5677 14.1489 64.5677 14.3391C64.5677 14.5927 64.8095 14.64 65.1662 14.6719C65.7131 14.7197 66.2323 14.9294 66.2323 15.5716C66.2323 16.19 65.6615 16.4594 65.0632 16.4633C64.5835 16.4675 64.0842 16.2812 63.8503 15.8927L64.2192 15.5082C64.4329 15.7815 64.7857 15.9007 65.067 15.9007C65.396 15.9007 65.622 15.7696 65.622 15.5716C65.6259 15.3376 65.4398 15.2308 65.0632 15.1993C64.4767 15.1435 63.9535 14.9972 63.9613 14.343C63.9655 13.7922 64.4887 13.4986 65.0593 13.4986C65.4874 13.4986 65.8083 13.594 66.0936 13.9268L65.7054 14.2677Z" fill="#212934"/>
<path fill-rule="evenodd" clip-rule="evenodd" d="M68.3236 13.5978H68.9381V16.3723H68.3236V13.5978Z" fill="#212934"/>
<path fill-rule="evenodd" clip-rule="evenodd" d="M73.6368 14.446L72.7805 15.524H72.6695L71.8412 14.4383V16.3761H71.2229V13.6019H71.9322L72.741 14.6681L73.5533 13.6019H74.2548V16.3761H73.6368V14.446Z" fill="#212934"/>
<path fill-rule="evenodd" clip-rule="evenodd" d="M77.1596 15.0206H77.8491C78.1466 15.0206 78.2934 14.8265 78.2934 14.6047C78.2934 14.3825 78.1427 14.1846 77.8491 14.1846H77.1596V15.0206ZM77.1596 15.5875V16.3723H76.5412V13.5978H77.8491C78.5586 13.5978 78.9114 14.0578 78.9114 14.5927C78.9114 15.1474 78.5547 15.5797 77.8491 15.5875H77.1596Z" fill="#212934"/>
<path fill-rule="evenodd" clip-rule="evenodd" d="M81.5976 13.5978V15.8054H82.9846V16.3723H80.9792V13.5978H81.5976Z" fill="#212934"/>
<path fill-rule="evenodd" clip-rule="evenodd" d="M87.1374 16.3723H85.0247V13.5978H87.082V14.1647H85.6313V14.6997H86.9987V15.2427H85.6313V15.8016H87.1374V16.3723Z" fill="#212934"/>
</svg>
