<svg width="160" height="72" viewBox="0 0 160 72" fill="none" xmlns="http://www.w3.org/2000/svg">
<path d="M73.2576 45.8131L67.032 28.4769C66.9524 28.2372 66.834 27.9208 66.834 27.6432C66.834 26.8919 67.4688 26.1785 68.3783 26.1785C69.1723 26.1785 69.6895 26.6939 69.9264 27.4452L75.0852 42.3834L80.2809 27.4035C80.5178 26.6929 80.9943 26.1775 81.7835 26.1775H81.9446C82.7793 26.1775 83.2947 26.6929 83.5315 27.4035L88.6846 42.3834L93.9249 27.3665C94.1229 26.7289 94.5559 26.1775 95.3915 26.1775C96.2632 26.1775 96.8989 26.8483 96.8989 27.6034C96.8989 27.8801 96.7786 28.1955 96.7009 28.4371L90.4355 45.8131C90.1153 46.7207 89.4833 47.1973 88.768 47.1973H88.6496C87.8556 47.1973 87.2597 46.7207 86.9802 45.8131L81.8669 31.0814L76.7091 45.8131C76.4315 46.7207 75.8346 47.1973 75.0435 47.1973H74.9601C74.2088 47.1973 73.5769 46.7207 73.2576 45.8131Z" fill="#696566"/>
<path d="M118.639 27.6897C118.639 26.8531 119.313 26.1388 120.146 26.1388C121.024 26.1388 121.697 26.8143 121.697 27.6897V31.2075C123.205 27.7911 126.551 26.1786 128.768 26.1786C129.686 26.1786 130.282 26.8531 130.282 27.7267C130.282 28.5623 129.728 29.1554 128.927 29.2748C124.952 29.7513 121.698 32.7329 121.698 38.6544V45.6208C121.698 46.4555 121.063 47.1689 120.19 47.1689C119.315 47.1689 118.64 46.4906 118.64 45.6208L118.639 27.6897Z" fill="#696566"/>
<path d="M140.098 47.3623C134.568 47.3623 130.052 43.0733 130.052 36.7833V36.7018C130.052 30.8438 134.141 26.1246 139.709 26.1246C145.661 26.1246 149.051 31.0361 149.051 36.4261C149.051 37.2541 148.383 37.8463 147.648 37.8463H133.094C133.518 42.2471 136.592 44.7237 140.178 44.7237C142.67 44.7237 144.494 43.7403 145.976 42.3636C146.21 42.1694 146.482 42.0122 146.834 42.0122C147.571 42.0122 148.158 42.6024 148.158 43.313C148.158 43.6654 148.002 44.0207 147.687 44.2926C145.782 46.1392 143.521 47.3623 140.098 47.3623ZM146.054 35.6037C145.741 31.904 143.638 28.6827 139.627 28.6827C136.124 28.6827 133.476 31.6302 133.092 35.6037H146.054Z" fill="#696566"/>
<path d="M96.9529 40.9954V40.9158C96.9529 36.5993 100.519 34.299 105.706 34.299C108.322 34.299 110.183 34.6552 112.009 35.1734V34.4572C112.009 30.7764 109.744 28.8721 105.906 28.8721C103.845 28.8721 102.646 29.1345 101.138 29.8062C100.943 29.8858 100.743 29.9266 100.588 29.9266C99.8748 29.9266 99.2381 29.3306 99.2381 28.6191C99.2381 27.9872 99.5138 27.5959 100.072 27.3486C102.089 26.4732 103.61 26.1823 106.223 26.1823C109.112 26.1823 111.331 26.9327 112.834 28.4391C114.223 29.8252 114.936 31.8053 114.936 34.4212V45.7222C114.936 46.591 114.302 47.2267 113.466 47.2267C112.598 47.2267 112.009 46.5919 112.009 45.8008V43.8472C110.581 45.7127 108.202 47.3735 104.604 47.3735C100.799 47.3707 96.9529 45.1944 96.9529 40.9954ZM112.047 39.4104V37.4293C110.539 36.9944 108.516 36.5576 106.023 36.5576C102.186 36.5576 100.043 38.2232 100.043 40.7955V40.8741C100.043 43.4483 102.418 44.9538 105.194 44.9538C108.955 44.9538 112.047 42.6553 112.047 39.4104Z" fill="#696566"/>
<path d="M17.7665 27.464C17.0957 25.9935 15.4377 25.3275 13.8896 26.0153C12.3396 26.7041 11.7692 28.4228 12.4694 29.8941L18.9697 44.0232C19.992 46.2373 21.0692 47.3979 23.091 47.3979C25.2512 47.3979 26.1929 46.1341 27.2143 44.0232C27.2143 44.0232 32.8837 31.6781 32.9405 31.5493C32.9983 31.4185 33.1802 31.0197 33.7572 31.0235C34.2452 31.0263 34.6554 31.4157 34.6554 31.9387V44.0109C34.6554 45.8716 35.6872 47.3979 37.673 47.3979C39.6569 47.3979 40.7294 45.8716 40.7294 44.0109V34.132C40.7294 32.2267 42.0946 30.9903 43.9554 30.9903C45.8162 30.9903 47.0545 32.2712 47.0545 34.132V44.0109C47.0545 45.8716 48.09 47.3979 50.072 47.3979C52.056 47.3979 53.1341 45.8716 53.1341 44.0109V34.132C53.1341 32.2267 54.4937 30.9903 56.3554 30.9903C58.2133 30.9903 59.4564 32.2712 59.4564 34.132V44.0109C59.4564 45.8716 60.4909 47.3979 62.4749 47.3979C64.4579 47.3979 65.5341 45.8716 65.5341 44.0109V32.7677C65.5341 28.6359 62.2115 25.7415 58.2133 25.7415C54.2199 25.7415 51.7187 28.5042 51.7187 28.5042C50.3894 26.7809 48.5571 25.7453 45.4561 25.7453C42.1837 25.7453 39.3196 28.5042 39.3196 28.5042C37.9894 26.7809 35.725 25.7453 33.8501 25.7453C30.95 25.7453 28.6468 27.0206 27.2417 30.2333L23.091 40.0174L17.7665 27.464Z" fill="#696566"/>
</svg>
